# xmcd CD database file
#
# Track frame offsets:
#	150
#	15762
#	31942
#	50525
#	68950
#	85360
#	104190
#	119412
#	138210
#	153912
#	170100
#	186182
#	203360
#	222097
#
# Disc length: 3172 seconds
#
# Revision: 8
# Processed by: cddbd v1.5.2PL0 Copyright (c) Steve Scherf et al.
# Submitted via: CDex 1.51
#
DISCID=bd0c620e
DTITLE=Howard Carpendale - Deine Spuren im Sand -CD2-
DYEAR=1997
DGENRE=Schlager
TTITLE0=Deine Spuren im Sand
TTITLE1=Hello Again
TTITLE2=Mit viel Herz
TTITLE3=Endlich mal Zeit
TTITLE4=Verdammt lange Tour
TTITLE5=Frau ohne Morgen
TTITLE6=Ich bin nun mal so
TTITLE7=Es weht ein neuer Wind
TTITLE8=Sorry
TTITLE9=Ohne dich
TTITLE10=Leider lieb ich dich noch immer
TTITLE11=Geh heute Nacht nicht so früh schlafen
TTITLE12=Das nennt man Blues
TTITLE13=Ich fahr uns nach Haus
EXTD=YEAR: 1997
EXTT0=
EXTT1=
EXTT2=
EXTT3=
EXTT4=
EXTT5=
EXTT6=
EXTT7=
EXTT8=
EXTT9=
EXTT10=
EXTT11=
EXTT12=
EXTT13=
PLAYORDER=
